<svg preserveAspectRatio="none" width="100%" height="100%" overflow="visible" style="display: block;" viewBox="0 0 12.671 14.8247" fill="none" xmlns="http://www.w3.org/2000/svg">
<g id="Group">
<path id="Vector" d="M12.671 3.55996C11.7654 3.53228 10.9453 3.09643 10.3268 2.51431C9.98851 2.19013 9.72105 1.79974 9.54012 1.36785C9.35919 0.934958 9.26971 0.469456 9.27659 0H6.75636V9.75776C6.75636 11.3519 5.80549 12.2908 4.6383 12.2908C4.32855 12.2938 4.02176 12.2296 3.73955 12.1011C3.45734 11.9726 3.20659 11.7838 3.00501 11.5466C2.80343 11.3104 2.65593 11.0327 2.57334 10.7322C2.48975 10.4328 2.47304 10.1175 2.52417 9.81113C2.5753 9.50376 2.69232 9.2122 2.86735 8.95524C3.04238 8.69827 3.27149 8.4838 3.53797 8.32567C3.80445 8.16754 4.10239 8.06969 4.41115 8.04004C4.71991 8.01039 5.03064 8.04894 5.32268 8.15271V5.57614C5.09751 5.52673 4.86839 5.50202 4.6383 5.50301C3.72086 5.50301 2.82506 5.77579 2.06201 6.28774C1.29896 6.79969 0.705038 7.5271 0.353995 8.37904C0.00196785 9.23098 -0.0894804 10.1679 0.0884995 11.0722C0.267463 11.9766 0.708971 12.8067 1.35698 13.459C2.00498 14.1113 2.83195 14.5551 3.7307 14.735C4.63043 14.9149 5.56261 14.8229 6.41023 14.4701C7.25785 14.1173 7.98157 13.5203 8.49092 12.7534C9.00028 11.9874 9.27266 11.0861 9.27266 10.164V4.91199C10.2491 5.59097 11.4163 5.91119 12.6621 5.93392L12.671 3.55996Z" fill="var(--fill-0, black)"/>
</g>
</svg>
